<svg xmlns="http://www.w3.org/2000/svg" width="102" height="49"><path d="M 6.626 47.606 C 6.625 48.004 6.306 48.33 5.908 48.339 L 0.777 48.339 C 0.359 48.339 0 48.032 0 47.606 L 0 0.737 C 0 0.431 0.359 0.063 0.777 0.063 L 5.91 0.063 C 6.269 0.063 6.628 0.431 6.628 0.737 L 6.628 47.606 Z M 20.055 47.606 C 20.054 48.004 19.736 48.33 19.337 48.339 L 14.207 48.339 C 13.788 48.339 13.431 48.032 13.431 47.606 L 13.431 0.737 C 13.431 0.431 13.788 0.063 14.207 0.063 L 19.339 0.063 C 19.698 0.063 20.057 0.431 20.057 0.737 L 20.057 47.606 Z M 33.485 47.606 C 33.484 48.004 33.165 48.33 32.766 48.339 L 27.634 48.339 C 27.216 48.339 26.859 48.032 26.859 47.606 L 26.859 0.737 C 26.859 0.431 27.216 0.063 27.634 0.063 L 32.766 0.063 C 33.128 0.063 33.485 0.431 33.485 0.737 Z M 46.973 47.606 C 46.972 48.004 46.655 48.329 46.257 48.339 L 41.124 48.339 C 40.706 48.339 40.347 48.032 40.347 47.606 L 40.347 0.737 C 40.347 0.431 40.706 0.063 41.124 0.063 L 46.257 0.063 C 46.614 0.063 46.973 0.431 46.973 0.737 Z M 99.795 0 C 100.211 0 100.511 0.372 100.511 0.737 L 100.511 6.021 C 100.511 6.452 100.213 6.819 99.795 6.819 L 54.254 6.819 C 53.956 6.819 53.599 6.452 53.599 6.021 L 53.599 0.737 C 53.599 0.37 53.958 0 54.254 0 Z M 99.795 13.883 C 100.211 13.883 100.511 14.253 100.511 14.62 L 100.511 19.902 C 100.511 20.331 100.213 20.7 99.795 20.7 L 54.254 20.7 C 53.956 20.7 53.599 20.331 53.599 19.902 L 53.599 14.62 C 53.599 14.251 53.958 13.883 54.254 13.883 Z M 99.795 27.703 C 100.211 27.703 100.511 28.071 100.511 28.44 L 100.511 33.72 C 100.511 34.155 100.213 34.523 99.795 34.523 L 54.254 34.523 C 53.956 34.523 53.599 34.155 53.599 33.72 L 53.599 28.44 C 53.599 28.069 53.958 27.703 54.254 27.703 Z M 99.795 41.519 C 100.211 41.519 100.511 41.891 100.511 42.256 L 100.511 47.54 C 100.511 47.971 100.213 48.339 99.795 48.339 L 54.254 48.339 C 53.956 48.339 53.599 47.971 53.599 47.54 L 53.599 42.256 C 53.599 41.889 53.958 41.519 54.254 41.519 Z" fill="rgb(255,255,255)"></path></svg>