<svg xmlns="http://www.w3.org/2000/svg" width="46" height="32"><path d="M 0.457 0.055 L 14.339 0.055 L 14.339 4.143 L 0.457 4.143 Z M 0.457 5.803 L 14.339 5.803 L 14.339 9.821 L 0.457 9.821 Z" fill="rgb(7,166,151)"></path><path d="M 16.284 5.803 L 30.369 5.803 L 30.369 9.821 L 16.284 9.821 Z" fill="rgb(245,45,143)"></path><path d="M 16.284 11.507 L 30.228 11.507 L 30.228 15.559 L 16.284 15.559 Z" fill="rgb(247,125,150)"></path><path d="M 16.284 17.265 L 30.191 17.265 L 30.191 21.317 L 16.284 21.317 Z" fill="rgb(245,124,150)"></path><path d="M 0.457 17.21 L 14.339 17.21 L 14.339 21.317 L 0.457 21.317 Z" fill="rgb(65,184,119)"></path><path d="M 32.154 11.507 L 46.037 11.507 L 46.037 15.706 L 32.154 15.706 Z M 32.154 22.995 L 46.058 22.995 L 46.058 27.048 L 32.154 27.048 Z" fill="rgb(98,77,164)"></path><path d="M 32.125 28.433 L 46.088 28.433 L 46.088 32.451 L 32.125 32.451 Z" fill="rgb(192,170,207)"></path></svg>