<svg width="50" height="24" viewBox="0 0 50 24" fill="none" xmlns="http://www.w3.org/2000/svg">
<path d="M3.248 23.317C3.248 23.526 3.072 23.676 2.896 23.676H0.381C0.176 23.676 0 23.526 0 23.317V0.361C0 0.211 0.176 0.0309999 0.381 0.0309999H2.897C3.073 0.0309999 3.249 0.211 3.249 0.361V23.317H3.248ZM9.831 23.317C9.831 23.526 9.655 23.676 9.479 23.676H6.964C6.759 23.676 6.584 23.526 6.584 23.317V0.361C6.584 0.211 6.759 0.0309999 6.964 0.0309999H9.48C9.656 0.0309999 9.832 0.211 9.832 0.361V23.317H9.831ZM16.414 23.317C16.414 23.526 16.239 23.676 16.062 23.676H13.546C13.341 23.676 13.166 23.526 13.166 23.317V0.361C13.166 0.211 13.341 0.0309999 13.546 0.0309999H16.062C16.239 0.0309999 16.414 0.211 16.414 0.361V23.317ZM23.026 23.317C23.026 23.526 22.85 23.676 22.675 23.676H20.159C19.954 23.676 19.778 23.526 19.778 23.317V0.361C19.778 0.211 19.954 0.0309999 20.159 0.0309999H22.675C22.85 0.0309999 23.026 0.211 23.026 0.361V23.317ZM48.919 0C49.123 0 49.27 0.182 49.27 0.361V2.949C49.27 3.16 49.124 3.34 48.919 3.34H26.595C26.449 3.34 26.274 3.16 26.274 2.949V0.361C26.274 0.181 26.45 0 26.595 0H48.919V0ZM48.919 6.8C49.123 6.8 49.27 6.981 49.27 7.161V9.748C49.27 9.958 49.124 10.139 48.919 10.139H26.595C26.449 10.139 26.274 9.958 26.274 9.748V7.161C26.274 6.98 26.45 6.8 26.595 6.8H48.919V6.8ZM48.919 13.569C49.123 13.569 49.27 13.749 49.27 13.93V16.516C49.27 16.729 49.124 16.909 48.919 16.909H26.595C26.449 16.909 26.274 16.729 26.274 16.516V13.93C26.274 13.748 26.45 13.569 26.595 13.569H48.919V13.569ZM48.919 20.336C49.123 20.336 49.27 20.518 49.27 20.697V23.285C49.27 23.496 49.124 23.676 48.919 23.676H26.595C26.449 23.676 26.274 23.496 26.274 23.285V20.697C26.274 20.517 26.45 20.336 26.595 20.336H48.919V20.336Z" fill="white"/>
</svg>
